solid 
facet normal -1 -0 -0
 outer loop
  vertex -1 -1 -1
  vertex -1 -1 1
  vertex -1 1 1
 endloop
endfacet
facet normal -1 -0 0
 outer loop
  vertex -1 -1 -1
  vertex -1 1 1
  vertex -1 1 -1
 endloop
endfacet
facet normal 0 0 1
 outer loop
  vertex -1 1 1
  vertex 1 1 1
  vertex 1 3 1
 endloop
endfacet
facet normal -0 0 1
 outer loop
  vertex -1 1 1
  vertex 1 3 1
  vertex -1 3 1
 endloop
endfacet
facet normal 0 -1 0
 outer loop
  vertex 1 -1 1
  vertex 1 -1 -1
  vertex 2 -1 -1
 endloop
endfacet
facet normal -0 -1 -0
 outer loop
  vertex 1 -1 1
  vertex 2 -1 -1
  vertex 2 -1 1
 endloop
endfacet
facet normal 0 -1 0
 outer loop
  vertex 1 -1 -1
  vertex 1 -1 1
  vertex -1 -1 1
 endloop
endfacet
facet normal 0 -1 0
 outer loop
  vertex 1 -1 -1
  vertex -1 -1 1
  vertex -1 -1 -1
 endloop
endfacet
facet normal 0 0 -1
 outer loop
  vertex -1 1 -1
  vertex 1 1 -1
  vertex 1 -1 -1
 endloop
endfacet
facet normal 0 0 -1
 outer loop
  vertex -1 1 -1
  vertex 1 -1 -1
  vertex -1 -1 -1
 endloop
endfacet
facet normal -0 1 0
 outer loop
  vertex 1 1 1
  vertex -1 1 1
  vertex -1 1 4
 endloop
endfacet
facet normal 0 1 0
 outer loop
  vertex 1 1 1
  vertex -1 1 4
  vertex 1 1 4
 endloop
endfacet
facet normal 1 -0 0
 outer loop
  vertex 2 1 -1
  vertex 2 1 1
  vertex 2 -1 1
 endloop
endfacet
facet normal 1 -0 0
 outer loop
  vertex 2 1 -1
  vertex 2 -1 1
  vertex 2 -1 -1
 endloop
endfacet
facet normal -0 -0 -1
 outer loop
  vertex 1 -1 -1
  vertex 1 1 -1
  vertex 2 1 -1
 endloop
endfacet
facet normal -0 0 -1
 outer loop
  vertex 1 -1 -1
  vertex 2 1 -1
  vertex 2 -1 -1
 endloop
endfacet
facet normal 0 -0 1
 outer loop
  vertex 1 1 1
  vertex 1 -1 1
  vertex 2 -1 1
 endloop
endfacet
facet normal 0 0 1
 outer loop
  vertex 1 1 1
  vertex 2 -1 1
  vertex 2 1 1
 endloop
endfacet
facet normal 0 1 0
 outer loop
  vertex 1 1 -1
  vertex 1 1 1
  vertex 2 1 1
 endloop
endfacet
facet normal 0 1 -0
 outer loop
  vertex 1 1 -1
  vertex 2 1 1
  vertex 2 1 -1
 endloop
endfacet
facet normal 0 1 0
 outer loop
  vertex -1 3 -1
  vertex -1 3 1
  vertex 1 3 1
 endloop
endfacet
facet normal 0 1 -0
 outer loop
  vertex -1 3 -1
  vertex 1 3 1
  vertex 1 3 -1
 endloop
endfacet
facet normal -1 -0 -0
 outer loop
  vertex -1 1 -1
  vertex -1 1 1
  vertex -1 3 1
 endloop
endfacet
facet normal -1 -0 0
 outer loop
  vertex -1 1 -1
  vertex -1 3 1
  vertex -1 3 -1
 endloop
endfacet
facet normal 1 0 -0
 outer loop
  vertex 1 1 1
  vertex 1 1 -1
  vertex 1 3 -1
 endloop
endfacet
facet normal 1 0 0
 outer loop
  vertex 1 1 1
  vertex 1 3 -1
  vertex 1 3 1
 endloop
endfacet
facet normal 0 0 -1
 outer loop
  vertex 1 1 -1
  vertex -1 1 -1
  vertex -1 3 -1
 endloop
endfacet
facet normal -0 -0 -1
 outer loop
  vertex 1 1 -1
  vertex -1 3 -1
  vertex 1 3 -1
 endloop
endfacet
facet normal 0 0 1
 outer loop
  vertex 1 1 4
  vertex -1 1 4
  vertex -1 -1 4
 endloop
endfacet
facet normal 0 -0 1
 outer loop
  vertex 1 1 4
  vertex -1 -1 4
  vertex 1 -1 4
 endloop
endfacet
facet normal 1 0 0
 outer loop
  vertex 1 -1 1
  vertex 1 1 1
  vertex 1 1 4
 endloop
endfacet
facet normal 1 -0 0
 outer loop
  vertex 1 -1 1
  vertex 1 1 4
  vertex 1 -1 4
 endloop
endfacet
facet normal -1 0 0
 outer loop
  vertex -1 1 1
  vertex -1 -1 1
  vertex -1 -1 4
 endloop
endfacet
facet normal -1 -0 -0
 outer loop
  vertex -1 1 1
  vertex -1 -1 4
  vertex -1 1 4
 endloop
endfacet
facet normal -0 -1 -0
 outer loop
  vertex -1 -1 1
  vertex 1 -1 1
  vertex 1 -1 4
 endloop
endfacet
facet normal 0 -1 -0
 outer loop
  vertex -1 -1 1
  vertex 1 -1 4
  vertex -1 -1 4
 endloop
endfacet
endsolid 
